<?xml version="1.0" encoding="iso-8859-1"?>
<!-- Uploaded to: SVG Repo, www.svgrepo.com, Generator: SVG Repo Mixer Tools -->
<svg height="800px" width="800px" version="1.1" id="Layer_1" xmlns="http://www.w3.org/2000/svg" xmlns:xlink="http://www.w3.org/1999/xlink" 
	 viewBox="0 0 512.002 512.002" xml:space="preserve">
<path style="fill:#57EECF;" d="M357.902,468.491c9.001,15.594-2.256,35.096-20.269,35.096h-88.71h-88.71
	c-18.014,0-29.271-19.503-20.269-35.096l24.255-42.006c0,10.228,7.589,18.506,16.951,18.506c9.352,0,16.94-8.29,16.94-18.517
	c0-10.228,7.589-18.517,16.94-18.517c9.363,0,16.951,8.29,16.951,18.517c0,10.228,7.578,18.517,16.94,18.517
	c9.362,0,16.94-8.29,16.94-18.517c0-10.228,7.589-18.517,16.951-18.517c9.352,0,16.94,8.29,16.94,18.517
	c0,10.228,7.589,18.517,16.94,18.517c9.363,0,16.951-8.279,16.951-18.506L357.902,468.491z"/>
<path style="fill:#8DFCF3;" d="M333.646,426.474v0.011c0,10.228-7.589,18.506-16.951,18.506c-9.352,0-16.94-8.29-16.94-18.517
	c0-10.228-7.589-18.517-16.94-18.517c-9.363,0-16.951,8.29-16.951,18.517c0,10.228-7.578,18.517-16.94,18.517
	c-9.362,0-16.94-8.29-16.94-18.517c0-10.228-7.589-18.517-16.951-18.517c-9.352,0-16.94,8.29-16.94,18.517
	c0,10.228-7.589,18.517-16.94,18.517c-9.363,0-16.951-8.279-16.951-18.506v-0.011l20.105-34.812
	c10.534-18.255,16.086-38.951,16.086-60.031V138.717h107.326c8.191,0,13.13,9.056,8.695,15.933l-3.187,4.95
	c-10.293,15.999-15.769,34.615-15.769,53.636v118.397c0,21.08,5.552,41.776,16.086,60.031L333.646,426.474z"/>
<g>
	<circle style="fill:#FFF5CC;" cx="205.36" cy="50.19" r="33.836"/>
	<circle style="fill:#FFF5CC;" cx="295.36" cy="90.41" r="18.561"/>
</g>
<polygon style="fill:#FFDA44;" points="359.186,8.009 363.435,26.096 375.193,40.484 357.105,44.735 342.718,56.492 338.467,38.405 
	326.71,24.017 344.798,19.766 "/>
<g>
	<path style="fill:#50000F;" d="M320.678,387.757c-9.802-16.979-14.984-36.315-14.984-55.918V213.446
		c0-17.482,5-34.492,14.461-49.192l3.189-4.954c3.676-5.712,3.939-12.964,0.685-18.926c-3.253-5.963-9.494-9.667-16.287-9.667
		H200.41c-4.536,0-8.213,3.676-8.213,8.213v192.92c0,19.604-5.181,38.941-14.984,55.918l-44.357,76.829
		c-5.714,9.896-5.714,21.713,0,31.61c5.714,9.896,15.947,15.805,27.375,15.805H337.66c11.428,0,21.661-5.909,27.375-15.805
		c5.714-9.897,5.714-21.713,0-31.61L320.678,387.757z M191.44,395.969c11.242-19.471,17.184-41.647,17.184-64.131v-9.964h20.746
		c4.536,0,8.213-3.676,8.213-8.213s-3.677-8.213-8.213-8.213h-20.746v-23.725h49.705c4.536,0,8.213-3.676,8.213-8.213
		s-3.677-8.213-8.213-8.213h-49.705v-23.863h20.746c4.536,0,8.213-3.676,8.213-8.213s-3.677-8.213-8.213-8.213h-20.746v-23.726
		h49.705c4.536,0,8.213-3.676,8.213-8.213s-3.677-8.213-8.213-8.213h-49.705v-37.725h99.121c1.044,0,1.592,0.603,1.868,1.108
		c0.276,0.506,0.486,1.293-0.079,2.17l-3.189,4.954c-11.171,17.355-17.075,37.439-17.075,58.08v118.393
		c0,22.483,5.942,44.658,17.184,64.131l18.843,32.636c-0.768,4.762-4.317,8.375-8.573,8.375c-4.814,0-8.731-4.621-8.731-10.301
		c0-14.738-11.286-26.728-25.158-26.728c-13.872,0-25.157,11.99-25.157,26.728c0,5.681-3.917,10.301-8.731,10.301
		s-8.732-4.621-8.732-10.301c0-14.738-11.286-26.728-25.157-26.728s-25.158,11.99-25.158,26.728c0,5.681-3.917,10.301-8.731,10.301
		c-4.256,0-7.806-3.614-8.572-8.376L191.44,395.969z M350.812,487.983c-2.745,4.754-7.661,7.592-13.15,7.592h-177.43
		c-5.489,0-10.405-2.838-13.15-7.592c-2.744-4.755-2.744-10.43,0-15.184l15.951-27.627c4.581,5.069,11.016,8.235,18.137,8.235
		c13.871,0,25.157-11.99,25.157-26.727c0-5.681,3.917-10.302,8.732-10.302c4.815,0,8.731,4.622,8.731,10.302
		c0,14.737,11.286,26.727,25.158,26.727c13.872,0,25.157-11.99,25.157-26.727c0-5.681,3.917-10.302,8.731-10.302
		s8.732,4.622,8.732,10.302c0,14.737,11.286,26.727,25.157,26.727c7.121,0,13.557-3.166,18.137-8.235l15.951,27.627
		C353.556,477.552,353.556,483.229,350.812,487.983z"/>
	<circle style="fill:#50000F;" cx="272.5" cy="476.32" r="9.198"/>
	<circle style="fill:#50000F;" cx="205.01" cy="467.13" r="4.599"/>
	<path style="fill:#50000F;" d="M205.383,92.439c23.186,0,42.049-18.863,42.049-42.048c0-23.187-18.863-42.049-42.049-42.049
		s-42.049,18.863-42.049,42.049C163.335,73.575,182.198,92.439,205.383,92.439z M205.383,24.767
		c14.128,0,25.623,11.495,25.623,25.623s-11.495,25.622-25.623,25.622S179.76,64.518,179.76,50.39S191.255,24.767,205.383,24.767z"
		/>
	<path style="fill:#50000F;" d="M295.386,117.381c14.763,0,26.774-12.012,26.774-26.774s-12.011-26.774-26.774-26.774
		c-14.764,0-26.774,12.012-26.774,26.774S280.622,117.381,295.386,117.381z M295.386,80.259c5.706,0,10.348,4.642,10.348,10.348
		s-4.642,10.348-10.348,10.348s-10.348-4.642-10.348-10.348C285.037,84.9,289.679,80.259,295.386,80.259z"/>
	<path style="fill:#50000F;" d="M381.577,35.492l-10.556-12.917l-3.816-16.24c-0.648-2.758-2.672-4.987-5.354-5.898
		c-2.684-0.912-5.646-0.376-7.838,1.417L341.095,12.41l-16.24,3.816c-2.757,0.648-4.987,2.671-5.898,5.354s-0.376,5.645,1.417,7.838
		l10.556,12.917l3.816,16.24c0.648,2.758,2.672,4.987,5.354,5.898c0.863,0.293,1.754,0.436,2.64,0.436
		c1.868,0,3.71-0.637,5.198-1.853L360.857,52.5l16.24-3.816c2.757-0.648,4.987-2.671,5.898-5.354
		C383.905,40.647,383.37,37.686,381.577,35.492z M355.251,36.945c-1.215,0.286-2.351,0.844-3.318,1.635l-4.204,3.435l-1.242-5.285
		c-0.286-1.216-0.845-2.35-1.636-3.318l-3.436-4.204l5.286-1.243c1.215-0.286,2.35-0.844,3.318-1.635l4.204-3.436l1.242,5.286
		c0.286,1.216,0.845,2.35,1.636,3.318l3.435,4.204L355.251,36.945z"/>
</g>
</svg>